<?xml version="1.0" encoding="UTF-8"?>
<svg width="127px" height="53px" viewBox="0 0 127 53" version="1.1" xmlns="http://www.w3.org/2000/svg" xmlns:xlink="http://www.w3.org/1999/xlink">
    <!-- Generator: Sketch 51.2 (57519) - http://www.bohemiancoding.com/sketch -->
    <title>logo-ANALYST私募</title>
    <desc>Created with Sketch.</desc>
    <defs></defs>
    <g id="看板" stroke="none" stroke-width="1" fill="none" fill-rule="evenodd">
        <g id="a01-内部看板-copy-3" transform="translate(-13.000000, -3.000000)" fill-rule="nonzero">
            <g id="logo-ANALYST私募" transform="translate(13.000000, 3.000000)">
                <g id="看板开发">
                    <g id="Artboard">
                        <g id="logo-ANALYST私募" transform="translate(52.000000, 0.000000)">
                            <polygon id="Rectangle-Copy" fill="#016DFF" opacity="0.817651721" points="14.3009711 0 9.3271354 0 17.9852667 20.0892146 22.9591024 20.0892146"></polygon>
                            <polygon id="Rectangle" fill="#01ACFF" opacity="0.816915761" points="9.1727376 0 14.3441148 0 5.8835249 20.0892146 0.7121477 20.0892146"></polygon>
                            <polygon id="Rectangle-2" fill="#1472FB" opacity="0.651551178" points="9.6257109 15.066911 20.8066866 15.066911 22.9591024 20.0892146 7.5334555 20.0892146"></polygon>
                        </g>
                        <path d="M5.225,38.434 L7.581,38.434 L12.806,52 L10.583,52 L9.31,48.504 L3.477,48.504 L2.204,52 L0,52 L5.225,38.434 Z M4.104,46.794 L8.683,46.794 L6.441,40.657 L6.365,40.657 L4.104,46.794 Z M14.136,38.434 L16.226,38.434 L23.161,48.523 L23.237,48.523 L23.237,38.434 L25.308,38.434 L25.308,52 L23.294,52 L16.283,41.797 L16.207,41.797 L16.207,52 L14.136,52 L14.136,38.434 Z M31.882,38.434 L34.238,38.434 L39.463,52 L37.24,52 L35.967,48.504 L30.134,48.504 L28.861,52 L26.657,52 L31.882,38.434 Z M30.761,46.794 L35.34,46.794 L33.098,40.657 L33.022,40.657 L30.761,46.794 Z M40.793,38.434 L42.845,38.434 L42.845,50.233 L50.312,50.233 L50.312,52 L40.793,52 L40.793,38.434 Z M50.787,38.434 L53.276,38.434 L57.19,44.647 L61.104,38.434 L63.593,38.434 L58.216,46.585 L58.216,52 L56.164,52 L56.164,46.585 L50.787,38.434 Z M69.768,38.168 C71.345,38.168 72.58,38.491 73.473,39.175 C74.423,39.878 74.955,40.961 75.088,42.443 L73.036,42.443 C72.846,41.569 72.504,40.923 71.972,40.543 C71.44,40.144 70.68,39.954 69.654,39.954 C68.761,39.954 68.077,40.087 67.602,40.353 C67.013,40.657 66.728,41.151 66.728,41.835 C66.728,42.443 67.051,42.918 67.735,43.279 C68.039,43.45 68.818,43.735 70.091,44.115 C71.915,44.685 73.112,45.122 73.644,45.445 C74.803,46.148 75.392,47.117 75.392,48.371 C75.392,49.587 74.917,50.537 73.967,51.24 C73.017,51.924 71.687,52.266 69.977,52.266 C68.324,52.266 67.032,51.924 66.101,51.278 C64.98,50.48 64.372,49.226 64.258,47.516 L66.31,47.516 C66.462,48.58 66.842,49.359 67.45,49.815 C68.001,50.233 68.837,50.442 69.977,50.442 C71.003,50.442 71.82,50.252 72.428,49.91 C73.036,49.568 73.34,49.093 73.34,48.485 C73.34,47.725 72.903,47.136 72.048,46.699 C71.744,46.547 70.851,46.243 69.35,45.787 C67.678,45.255 66.652,44.894 66.234,44.666 C65.189,44.039 64.676,43.127 64.676,41.949 C64.676,40.752 65.17,39.821 66.177,39.137 C67.127,38.491 68.324,38.168 69.768,38.168 Z M76.266,38.434 L87.381,38.434 L87.381,40.201 L82.859,40.201 L82.859,52 L80.807,52 L80.807,40.201 L76.266,40.201 L76.266,38.434 Z M89.861,49.712 C90.181,49.712 90.469,49.824 90.709,50.048 C90.933,50.272 91.061,50.56 91.061,50.912 C91.061,51.232 90.933,51.52 90.709,51.76 C90.469,51.968 90.181,52.08 89.861,52.08 C89.509,52.08 89.237,51.968 89.029,51.76 C88.789,51.52 88.677,51.232 88.677,50.912 C88.677,50.56 88.789,50.272 89.029,50.048 C89.237,49.824 89.509,49.712 89.861,49.712 Z M108.024,44.36 C108.888,46.664 109.64,49.288 110.312,52.264 L108.808,52.648 C108.68,52.072 108.568,51.512 108.44,50.968 C106.36,51.368 104.104,51.736 101.688,52.088 L101.4,50.632 C101.816,50.52 102.056,50.344 102.12,50.12 L105.4,38.312 L106.92,38.52 L103.608,50.296 C105.336,50.04 106.824,49.8 108.088,49.544 C107.672,47.912 107.208,46.344 106.68,44.824 L108.024,44.36 Z M96.008,42.072 L98.728,42.072 L98.728,40.088 C97.976,40.184 97.192,40.28 96.392,40.344 L96.072,38.888 C98.376,38.728 100.424,38.408 102.216,37.928 L102.744,39.336 C101.96,39.528 101.128,39.704 100.248,39.864 L100.248,42.072 L102.712,42.072 L102.712,43.528 L100.248,43.528 L100.248,44.04 C101.016,44.76 101.8,45.56 102.584,46.456 L101.72,47.736 C101.144,46.808 100.664,46.04 100.248,45.464 L100.248,52.6 L98.728,52.6 L98.728,45.848 C98.104,47.208 97.32,48.456 96.36,49.592 L95.672,47.864 C97.016,46.584 98.008,45.144 98.616,43.528 L96.008,43.528 L96.008,42.072 Z M122.68,46.696 C123.544,47.368 124.792,47.896 126.424,48.296 L125.848,49.528 C125.032,49.24 124.312,48.952 123.704,48.632 C123.672,50.264 123.512,51.32 123.192,51.8 C122.84,52.312 122.2,52.568 121.304,52.568 C120.696,52.568 120.184,52.536 119.784,52.504 L119.432,51.224 C120.088,51.304 120.696,51.352 121.24,51.352 C121.752,51.336 122.056,51.144 122.136,50.76 C122.2,50.36 122.248,49.944 122.248,49.496 L118.952,49.496 C118.696,49.992 118.376,50.44 117.992,50.824 C117.192,51.624 115.768,52.248 113.72,52.712 L113.176,51.432 C114.872,51.08 116.104,50.584 116.872,49.912 C117.032,49.768 117.16,49.624 117.272,49.496 L114.312,49.496 L114.312,48.68 C113.672,48.984 113,49.272 112.264,49.528 L111.608,48.264 C113.144,47.816 114.344,47.288 115.24,46.696 L112.104,46.696 L112.104,45.496 L116.568,45.496 C116.728,45.272 116.872,45.064 116.968,44.856 L113.784,44.856 L113.784,40.584 L115.544,40.584 L115.544,39.864 L111.896,39.864 L111.896,38.632 L115.544,38.632 L115.544,37.816 L117.032,37.816 L117.032,38.632 L120.968,38.632 L120.968,37.816 L122.456,37.816 L122.456,38.632 L126.104,38.632 L126.104,39.864 L122.456,39.864 L122.456,40.584 L124.264,40.584 L124.264,44.856 L118.312,44.856 C118.216,45.08 118.12,45.304 118.008,45.496 L125.912,45.496 L125.912,46.696 L122.68,46.696 Z M123.032,48.264 C122.248,47.784 121.624,47.256 121.144,46.696 L117.128,46.696 C116.584,47.272 115.912,47.784 115.096,48.264 L117.976,48.264 C118.104,47.896 118.2,47.512 118.264,47.096 L119.64,47.24 C119.592,47.592 119.528,47.944 119.432,48.264 L123.032,48.264 Z M120.968,39.864 L117.032,39.864 L117.032,40.584 L120.968,40.584 L120.968,39.864 Z M122.84,43.832 L122.84,43.208 L115.208,43.208 L115.208,43.832 L122.84,43.832 Z M115.208,42.248 L122.84,42.248 L122.84,41.624 L115.208,41.624 L115.208,42.248 Z" id="Combined-Shape" fill="#FFFFFF" opacity="0.699999988"></path>
                    </g>
                </g>
            </g>
        </g>
    </g>
</svg>